<svg xmlns="http://www.w3.org/2000/svg" xmlns:xlink="http://www.w3.org/1999/xlink" width="1080" zoomAndPan="magnify" viewBox="0 0 810 809.999993" height="1080" preserveAspectRatio="xMidYMid meet" version="1.0"><defs><g/><clipPath id="31d94d7ed5"><path d="M 75 0 L 735 0 C 776.421875 0 810 33.578125 810 75 L 810 735 C 810 776.421875 776.421875 810 735 810 L 75 810 C 33.578125 810 0 776.421875 0 735 L 0 75 C 0 33.578125 33.578125 0 75 0 Z M 75 0 " clip-rule="nonzero"/></clipPath><clipPath id="d0461b23b5"><path d="M 0 0 L 810 0 L 810 810 L 0 810 Z M 0 0 " clip-rule="nonzero"/></clipPath><clipPath id="05a8ad6264"><path d="M 75 0 L 735 0 C 776.421875 0 810 33.578125 810 75 L 810 735 C 810 776.421875 776.421875 810 735 810 L 75 810 C 33.578125 810 0 776.421875 0 735 L 0 75 C 0 33.578125 33.578125 0 75 0 Z M 75 0 " clip-rule="nonzero"/></clipPath><clipPath id="a64c8946e2"><rect x="0" width="810" y="0" height="810"/></clipPath><clipPath id="59a8d3cd48"><path d="M 222.414062 131.933594 L 320.445312 131.933594 L 320.445312 226.636719 L 222.414062 226.636719 Z M 222.414062 131.933594 " clip-rule="nonzero"/></clipPath><clipPath id="2707cca31f"><path d="M 231.414062 131.933594 L 311.175781 131.933594 C 313.5625 131.933594 315.851562 132.882812 317.539062 134.570312 C 319.226562 136.257812 320.175781 138.546875 320.175781 140.933594 L 320.175781 217.636719 C 320.175781 220.023438 319.226562 222.3125 317.539062 224 C 315.851562 225.6875 313.5625 226.636719 311.175781 226.636719 L 231.414062 226.636719 C 229.027344 226.636719 226.738281 225.6875 225.050781 224 C 223.363281 222.3125 222.414062 220.023438 222.414062 217.636719 L 222.414062 140.933594 C 222.414062 138.546875 223.363281 136.257812 225.050781 134.570312 C 226.738281 132.882812 229.027344 131.933594 231.414062 131.933594 Z M 231.414062 131.933594 " clip-rule="nonzero"/></clipPath><clipPath id="3cfb8849bc"><path d="M 0.414062 0.933594 L 98.398438 0.933594 L 98.398438 95.636719 L 0.414062 95.636719 Z M 0.414062 0.933594 " clip-rule="nonzero"/></clipPath><clipPath id="ac042fdd13"><path d="M 9.414062 0.933594 L 89.175781 0.933594 C 91.5625 0.933594 93.851562 1.882812 95.539062 3.570312 C 97.226562 5.257812 98.175781 7.546875 98.175781 9.933594 L 98.175781 86.636719 C 98.175781 89.023438 97.226562 91.3125 95.539062 93 C 93.851562 94.6875 91.5625 95.636719 89.175781 95.636719 L 9.414062 95.636719 C 7.027344 95.636719 4.738281 94.6875 3.050781 93 C 1.363281 91.3125 0.414062 89.023438 0.414062 86.636719 L 0.414062 9.933594 C 0.414062 7.546875 1.363281 5.257812 3.050781 3.570312 C 4.738281 1.882812 7.027344 0.933594 9.414062 0.933594 Z M 9.414062 0.933594 " clip-rule="nonzero"/></clipPath><clipPath id="691740fb68"><rect x="0" width="99" y="0" height="96"/></clipPath><clipPath id="2be1921a1a"><path d="M 488.871094 131.933594 L 586.902344 131.933594 L 586.902344 226.636719 L 488.871094 226.636719 Z M 488.871094 131.933594 " clip-rule="nonzero"/></clipPath><clipPath id="e66194595f"><path d="M 497.871094 131.933594 L 577.632812 131.933594 C 580.019531 131.933594 582.308594 132.882812 583.996094 134.570312 C 585.683594 136.257812 586.632812 138.546875 586.632812 140.933594 L 586.632812 217.636719 C 586.632812 220.023438 585.683594 222.3125 583.996094 224 C 582.308594 225.6875 580.019531 226.636719 577.632812 226.636719 L 497.871094 226.636719 C 495.484375 226.636719 493.195312 225.6875 491.503906 224 C 489.816406 222.3125 488.871094 220.023438 488.871094 217.636719 L 488.871094 140.933594 C 488.871094 138.546875 489.816406 136.257812 491.503906 134.570312 C 493.195312 132.882812 495.484375 131.933594 497.871094 131.933594 Z M 497.871094 131.933594 " clip-rule="nonzero"/></clipPath><clipPath id="14959859e5"><path d="M 0.871094 0.933594 L 98.800781 0.933594 L 98.800781 95.636719 L 0.871094 95.636719 Z M 0.871094 0.933594 " clip-rule="nonzero"/></clipPath><clipPath id="0829e5e139"><path d="M 9.871094 0.933594 L 89.632812 0.933594 C 92.019531 0.933594 94.308594 1.882812 95.996094 3.570312 C 97.683594 5.257812 98.632812 7.546875 98.632812 9.933594 L 98.632812 86.636719 C 98.632812 89.023438 97.683594 91.3125 95.996094 93 C 94.308594 94.6875 92.019531 95.636719 89.632812 95.636719 L 9.871094 95.636719 C 7.484375 95.636719 5.195312 94.6875 3.503906 93 C 1.816406 91.3125 0.871094 89.023438 0.871094 86.636719 L 0.871094 9.933594 C 0.871094 7.546875 1.816406 5.257812 3.503906 3.570312 C 5.195312 1.882812 7.484375 0.933594 9.871094 0.933594 Z M 9.871094 0.933594 " clip-rule="nonzero"/></clipPath><clipPath id="3ce5ce076e"><rect x="0" width="99" y="0" height="96"/></clipPath></defs><rect x="-81" width="972" fill="#ffffff" y="-80.999999" height="971.999992" fill-opacity="1"/><rect x="-81" width="972" fill="#ffffff" y="-80.999999" height="971.999992" fill-opacity="1"/><g clip-path="url(#31d94d7ed5)"><g transform="matrix(1, 0, 0, 1, 0, 0.000000000000039746)"><g clip-path="url(#a64c8946e2)"><g clip-path="url(#d0461b23b5)"><g clip-path="url(#05a8ad6264)"><rect x="-178.2" width="1166.4" fill="#ff890f" height="1166.39999" y="-178.199998" fill-opacity="1"/></g></g></g></g></g><g fill="#ffffff" fill-opacity="1"><g transform="translate(67.637695, 711.435272)"><g><path d="M 37.28125 -212.09375 L 90.734375 -211.796875 C 118.660156 -211.796875 143.21875 -201.726562 164.40625 -181.59375 C 185.601562 -161.46875 196.203125 -136.71875 196.203125 -107.34375 C 196.203125 -77.96875 185.847656 -52.78125 165.140625 -31.78125 C 144.429688 -10.78125 119.335938 -0.28125 89.859375 -0.28125 L 36.984375 -0.28125 C 25.234375 -0.28125 17.914062 -2.691406 15.03125 -7.515625 C 12.71875 -11.554688 11.5625 -17.71875 11.5625 -26 L 11.5625 -186.65625 C 11.5625 -191.28125 11.703125 -194.648438 11.984375 -196.765625 C 12.273438 -198.890625 13.191406 -201.398438 14.734375 -204.296875 C 17.429688 -209.492188 24.945312 -212.09375 37.28125 -212.09375 Z M 90.734375 -51.4375 C 104.597656 -51.4375 117.113281 -56.585938 128.28125 -66.890625 C 139.457031 -77.203125 145.046875 -90.15625 145.046875 -105.75 C 145.046875 -121.351562 139.601562 -134.40625 128.71875 -144.90625 C 117.84375 -155.40625 105.082031 -160.65625 90.4375 -160.65625 L 62.703125 -160.65625 L 62.703125 -51.4375 Z M 90.734375 -51.4375 "/></g></g></g><g fill="#ffffff" fill-opacity="1"><g transform="translate(271.06518, 711.435272)"><g><path d="M 264.96875 -210.640625 C 277.875 -206.023438 284.328125 -199.863281 284.328125 -192.15625 C 284.328125 -189.644531 283.171875 -184.925781 280.859375 -178 L 225.390625 -17.625 C 225.003906 -16.28125 224.328125 -14.644531 223.359375 -12.71875 C 222.398438 -10.789062 219.847656 -8.234375 215.703125 -5.046875 C 211.554688 -1.867188 206.640625 -0.28125 200.953125 -0.28125 C 195.273438 -0.28125 190.363281 -1.867188 186.21875 -5.046875 C 182.082031 -8.234375 179.34375 -11.367188 178 -14.453125 L 144.1875 -114.140625 C 122.800781 -50.953125 111.914062 -18.78125 111.53125 -17.625 C 111.144531 -16.46875 110.273438 -14.828125 108.921875 -12.703125 C 107.578125 -10.585938 106.039062 -8.664062 104.3125 -6.9375 C 99.882812 -2.5 94.585938 -0.28125 88.421875 -0.28125 C 82.253906 -0.28125 77.195312 -1.722656 73.25 -4.609375 C 69.300781 -7.503906 66.648438 -10.398438 65.296875 -13.296875 L 63.28125 -17.625 L 7.515625 -178 C 5.390625 -184.351562 4.328125 -189.070312 4.328125 -192.15625 C 4.328125 -199.863281 10.78125 -205.929688 23.6875 -210.359375 C 29.28125 -212.285156 34.335938 -213.25 38.859375 -213.25 C 43.390625 -213.25 46.859375 -211.707031 49.265625 -208.625 C 51.671875 -205.539062 53.835938 -200.820312 55.765625 -194.46875 L 87.546875 -97.953125 L 119.046875 -193.015625 C 121.742188 -201.109375 126.65625 -206.695312 133.78125 -209.78125 C 136.863281 -211.125 140.859375 -211.796875 145.765625 -211.796875 C 150.679688 -211.796875 155.257812 -210.207031 159.5 -207.03125 C 163.738281 -203.851562 166.4375 -200.722656 167.59375 -197.640625 L 200.828125 -97.375 L 232.609375 -194.46875 C 234.148438 -198.894531 235.398438 -202.164062 236.359375 -204.28125 C 237.328125 -206.40625 239.109375 -208.476562 241.703125 -210.5 C 244.304688 -212.519531 247.535156 -213.53125 251.390625 -213.53125 C 255.242188 -213.53125 259.769531 -212.566406 264.96875 -210.640625 Z M 264.96875 -210.640625 "/></g></g></g><g fill="#ffffff" fill-opacity="1"><g transform="translate(559.735718, 711.435272)"><g><path d="M 167.875 -169.03125 C 172.882812 -158.820312 175.390625 -147.457031 175.390625 -134.9375 C 175.390625 -122.414062 172.882812 -111.097656 167.875 -100.984375 C 162.875 -90.867188 156.421875 -82.828125 148.515625 -76.859375 C 132.523438 -64.535156 115.960938 -58.375 98.828125 -58.375 L 62.703125 -58.375 L 62.703125 -25.71875 C 62.703125 -21.289062 62.554688 -17.96875 62.265625 -15.75 C 61.984375 -13.53125 61.070312 -10.976562 59.53125 -8.09375 C 56.832031 -2.882812 49.316406 -0.28125 36.984375 -0.28125 C 23.503906 -0.28125 15.609375 -3.847656 13.296875 -10.984375 C 12.140625 -14.253906 11.5625 -19.257812 11.5625 -26 L 11.5625 -186.375 C 11.5625 -190.800781 11.703125 -194.125 11.984375 -196.34375 C 12.273438 -198.5625 13.191406 -201.113281 14.734375 -204 C 17.429688 -209.195312 24.945312 -211.796875 37.28125 -211.796875 L 99.109375 -211.796875 C 116.054688 -211.796875 132.523438 -205.632812 148.515625 -193.3125 C 156.421875 -187.34375 162.875 -179.25 167.875 -169.03125 Z M 99.109375 -109.515625 C 104.890625 -109.515625 110.570312 -111.632812 116.15625 -115.875 C 121.738281 -120.113281 124.53125 -126.46875 124.53125 -134.9375 C 124.53125 -143.414062 121.738281 -149.820312 116.15625 -154.15625 C 110.570312 -158.488281 104.796875 -160.65625 98.828125 -160.65625 L 62.703125 -160.65625 L 62.703125 -109.515625 Z M 99.109375 -109.515625 "/></g></g></g><path stroke-linecap="butt" transform="matrix(-0.749983, -0.00497829, 0.00497829, -0.749983, 673.469082, 405.826416)" fill="none" stroke-linejoin="miter" d="M 19.643601 176.079556 C 244.480723 -18.693195 469.319006 -18.696026 694.15852 176.081482 " stroke="#ffffff" stroke-width="60" stroke-opacity="1" stroke-miterlimit="4"/><g clip-path="url(#59a8d3cd48)"><g clip-path="url(#2707cca31f)"><g transform="matrix(1, 0, 0, 1, 222, 131)"><g clip-path="url(#691740fb68)"><g clip-path="url(#3cfb8849bc)"><g clip-path="url(#ac042fdd13)"><path fill="#ffffff" d="M 0.414062 0.933594 L 98.074219 0.933594 L 98.074219 95.636719 L 0.414062 95.636719 Z M 0.414062 0.933594 " fill-opacity="1" fill-rule="nonzero"/></g></g></g></g></g></g><g clip-path="url(#2be1921a1a)"><g clip-path="url(#e66194595f)"><g transform="matrix(1, 0, 0, 1, 488, 131)"><g clip-path="url(#3ce5ce076e)"><g clip-path="url(#14959859e5)"><g clip-path="url(#0829e5e139)"><path fill="#ffffff" d="M 0.871094 0.933594 L 98.53125 0.933594 L 98.53125 95.636719 L 0.871094 95.636719 Z M 0.871094 0.933594 " fill-opacity="1" fill-rule="nonzero"/></g></g></g></g></g></g></svg>